Coordinates
version=1
nRows=16
nColumns=36
inDegrees=yes

Units are S.I. units (second, meters, Newtons, ...)
If the header above contains a line with 'inDegrees', this indicates whether rotational values are in degrees (yes) or radians (no).

endheader
time	pelvis_tilt	pelvis_list	pelvis_rotation	pelvis_tx	pelvis_ty	pelvis_tz	hip_flexion_r	hip_adduction_r	hip_rotation_r	knee_angle_r	knee_angle_r_beta	ankle_angle_r	subtalar_angle_r	mtp_angle_r	hip_flexion_l	hip_adduction_l	hip_rotation_l	knee_angle_l	knee_angle_l_beta	ankle_angle_l	subtalar_angle_l	mtp_angle_l	lumbar_extension	lumbar_bending	lumbar_rotation	arm_flex_r	arm_add_r	arm_rot_r	elbow_flex_r	pro_sup_r	arm_flex_l	arm_add_l	arm_rot_l	elbow_flex_l	pro_sup_l
      0.00000000	      2.31219211	      2.25953956	      5.98290308	     -0.11745398	      0.91650404	     -0.21765101	     26.70323512	     -3.51014618	      4.32105725	      6.27836140	      0.10957808	     10.60638836	      1.88954095	     -4.52164068	    -24.14142832	      1.89825547	     10.48614566	      8.11926275	      0.14170787	     16.74108032	     10.08699444	     -4.52164068	     -6.20876947	     -3.92720719	    -11.47000849	    -16.80590463	     -3.55638657	    -17.15424953	     28.78503507	    107.79710277	      4.53875164	     -9.96783562	     -4.28046876	     54.13635005	    102.95289343
      0.01000000	      2.37983635	      2.10761381	      6.23715313	     -0.10166950	      0.91593833	     -0.21653216	     26.18330442	     -3.27347338	      3.27926590	      6.83986537	      0.11937817	      9.27772146	      1.38967266	     -4.54623740	    -24.31208025	      1.50106454	      9.90139048	      9.53649614	      0.16644326	     15.17427013	      9.95280422	     -4.54623740	     -5.97032473	     -3.68214496	    -11.63075092	    -16.95474963	     -3.62756259	    -17.14903438	     28.42450719	    108.07250575	      3.83011803	     -9.67551095	     -4.46317198	     53.22194333	    103.30644226
      0.02000000	      2.21893411	      1.92149712	      6.42131472	     -0.08571258	      0.91521143	     -0.21531370	     25.88825726	     -2.97712180	      2.40624497	      7.28904666	      0.12721786	      7.30722365	      0.56005081	     -4.58470887	    -24.20053347	      1.10752564	      9.25979639	     10.96691078	      0.19140870	     13.61084886	      9.79536524	     -4.58470887	     -5.37279874	     -3.41545094	    -11.75639415	    -17.15129347	     -3.70948114	    -17.22472117	     28.01970175	    108.44933676	      3.06710364	     -9.23846719	     -4.99912408	     51.90513584	    103.81348435
      0.03000000	      2.13610391	      1.69676151	      6.53477442	     -0.06979842	      0.91479274	     -0.21394909	     25.52032078	     -2.59125446	      1.93485068	      7.79996287	      0.13613503	      5.63428267	     -0.03542966	     -4.61438727	    -23.99307438	      0.68044661	      8.73040111	     12.68595156	      0.22141162	     11.95458066	      9.71100955	     -4.61438727	     -4.92098087	     -3.08862415	    -11.78528259	    -17.36088327	     -3.80617480	    -17.33201818	     27.76609173	    108.69803766	      2.32765943	     -8.83817665	     -5.48637409	     50.72434834	    104.15469282
      0.04000000	      1.92183448	      1.31014858	      6.51574811	     -0.05376900	      0.91455784	     -0.21233157	     25.34053688	     -1.96959224	      1.76837122	      8.34990945	      0.14573341	      3.54798950	     -0.86678972	     -4.66062781	    -23.39873259	      0.11773423	      7.85534228	     14.71737713	      0.25686669	     10.07474276	      9.65900804	     -4.66062781	     -4.26089761	     -2.60796980	    -11.64858084	    -17.54113039	     -3.91940365	    -17.49383846	     27.46365116	    109.04019079	      1.60456611	     -8.26875015	     -6.21943664	     49.13415274	    104.67045407
      0.05000000	      1.77318076	      0.87169994	      6.33428222	     -0.03783300	      0.91475812	     -0.21040837	     25.07312153	     -1.14259166	      2.37732759	      8.88546817	      0.15508068	      1.15633105	     -2.77329561	     -4.79347045	    -22.54580250	     -0.49585648	      6.75919241	     17.28256411	      0.30163765	      8.23561386	     10.10146585	     -4.79347045	     -3.67399770	     -2.03853891	    -11.30826012	    -17.70766854	     -4.01921421	    -17.79073055	     27.19621528	    109.82303577	      1.02695173	     -7.62065874	     -7.10180342	     47.22408340	    106.26302244
      0.06000000	      1.79175376	      0.32294970	      6.11495072	     -0.02183785	      0.91553685	     -0.20852467	     24.78824018	     -0.24443485	      2.36064363	      9.83771274	      0.17170048	      0.10126127	     -2.69155265	     -4.82766362	    -21.62520280	     -1.26739563	      5.65148196	     20.14025686	      0.35151379	      5.62157694	     10.08784120	     -4.82766362	     -3.32478311	     -1.29997520	    -11.01613968	    -17.82616269	     -4.20522258	    -17.86450222	     27.16337895	    109.97024810	      0.24076170	     -7.15672924	     -7.56478947	     45.80924879	    106.48174966
      0.07000000	      1.77824497	     -0.27128806	      5.78003931	     -0.00604752	      0.91654838	     -0.20644840	     24.61325861	      0.77173794	      2.66221297	     10.98534035	      0.19173036	     -0.73138081	     -2.94484924	     -4.86117772	    -20.33564482	     -2.11726236	      4.39398605	     23.46918030	      0.40961447	      2.75741134	     10.18626034	     -4.86117772	     -2.97243145	     -0.50704671	    -10.53334935	    -17.94616185	     -4.40828674	    -17.91813605	     27.14511630	    110.10534890	     -0.38324246	     -6.57505731	     -8.20039682	     44.02676264	    106.62059626
      0.08000000	      1.68848774	     -0.91927976	      5.31626059	      0.00940764	      0.91762581	     -0.20417235	     24.53161265	      1.97429776	      3.67890098	     12.19472332	      0.21283807	     -1.93755840	     -4.59046934	     -4.98510092	    -18.69667783	     -3.02481810	      3.23550539	     27.14799471	      0.47382189	     -0.13606607	     10.44875534	     -4.98510092	     -2.52756621	      0.37826845	     -9.71976924	    -18.16851448	     -4.55365831	    -18.15544837	     27.29616389	    110.50800460	     -0.68293476	     -5.85191893	     -8.93751262	     41.58703954	    107.53431425
      0.09000000	      1.88275760	     -1.62252354	      4.85964911	      0.02466266	      0.91928579	     -0.20197968	     24.09828223	      3.20206854	      4.25370307	     13.42145752	      0.23424862	     -1.94440304	     -4.96099607	     -5.01762120	    -17.18230639	     -4.08230957	      2.12941747	     30.93149371	      0.53985641	     -3.60456088	     10.52590242	     -5.01762120	     -2.53720169	      1.35002341	     -9.11633330	    -18.15113049	     -4.79736596	    -18.16429231	     27.46433336	    110.60797186	     -1.32581870	     -5.31899223	     -9.46030508	     40.04842668	    107.60007095
      0.10000000	      2.10269582	     -2.22717504	      4.38164327	      0.03942141	      0.92108417	     -0.19976991	     23.57237603	      4.34575816	      4.95203603	     14.56628694	      0.25422967	     -1.74288150	     -5.57823613	     -5.04437834	    -15.50047943	     -5.04360365	      1.28147376	     34.84133203	      0.60809596	     -6.94138552	     10.53784711	     -5.04437834	     -2.66746486	      2.19293891	     -8.40295845	    -18.12889050	     -4.99358824	    -18.11173101	     27.72058867	    110.70535921	     -1.80159128	     -4.77822226	    -10.06232377	     38.36595308	    107.59286178
      0.11000000	      2.10424611	     -2.84118619	      3.85892479	      0.05380247	      0.92269226	     -0.19763240	     23.21404396	      5.51415241	      5.92976927	     15.62696412	      0.27274198	     -1.72458088	     -6.63452290	     -5.09317277	    -13.49359841	     -5.90690569	      0.85773771	     38.64333397	      0.67445341	    -10.18776469	     10.17762090	     -5.09317277	     -2.54278155	      3.06558311	     -7.48568784	    -18.26869253	     -5.21950994	    -18.04233145	     28.19853397	    110.87067436	     -2.04030697	     -4.14436342	    -10.85405308	     36.16197928	    107.68117161
      0.12000000	      2.27476263	     -3.37069524	      3.39003867	      0.06776297	      0.92465396	     -0.19556138	     22.48744146	      6.56327287	      6.71234940	     16.35287646	      0.28541154	     -1.46235694	     -7.46548541	     -5.14152998	    -11.58312211	     -6.68073877	      0.66122628	     42.28330690	      0.73798292	    -12.67290951	      9.91761045	     -5.14152998	     -2.70569334	      3.80453597	     -6.66682723	    -18.29012463	     -5.46470560	    -17.98052441	     28.68667999	    111.01989523	     -2.31538482	     -3.69790743	    -11.46153338	     34.27885669	    107.79073008
      0.13000000	      2.53178552	     -3.81039629	      3.02554298	      0.08128175	      0.92691786	     -0.19386486	     21.49434699	      7.41042476	      7.25194497	     16.74397217	      0.29223744	     -0.87456265	     -7.96279512	     -5.17371027	     -9.72480503	     -7.32018395	      0.69251524	     45.61220985	      0.79608324	    -14.13724915	      9.80090960	     -5.17371027	     -3.06253401	      4.47478938	     -5.95740177	    -18.12723210	     -5.63274155	    -17.86868926	     29.08502014	    111.12423667	     -2.68149536	     -3.30107069	    -11.89826141	     32.77488552	    107.81921745
      0.14000000	      2.65085045	     -4.09512853	      2.71469633	      0.09438215	      0.92917348	     -0.19238555	     20.55539706	      8.02659950	      7.71487520	     16.95470248	      0.29591538	     -0.38786377	     -8.32467718	     -5.21570482	     -7.67742605	     -7.68459814	      1.00342172	     48.62820326	      0.84872226	    -14.50548457	      9.54904921	     -5.21570482	     -3.26892299	      4.92960071	     -5.24649480	    -18.02703319	     -5.83353372	    -17.68099626	     29.60044713	    111.25089579	     -2.89014562	     -2.96934778	    -12.39958565	     30.98208389	    107.85610451
      0.15000000	      2.78780518	     -4.29103588	      2.56058119	      0.10717842	      0.93163633	     -0.19114242	     19.44755654	      8.45880590	      8.02881072	     16.86693726	      0.29438359	      0.25371730	     -8.47167956	     -5.24822784	     -5.63964338	     -7.92564124	      1.48756904	     51.22926684	      0.89411938	    -13.86597729	      9.19053021	     -5.24822784	     -3.52657267	      5.25962965	     -4.71435618	    -17.82992466	     -5.95207945	    -17.47687452	     30.00226483	    111.34361587	     -3.21065054	     -2.75278643	    -12.75366643	     29.44875883	    107.85452369
